<svg xmlns="http://www.w3.org/2000/svg" viewBox="0 0 55 55"><path d="M46.501 0H8.499C4.088 0 .5 3.587.5 7.997v39.006C.5 51.413 4.088 55 8.499 55h38.002c4.411 0 7.999-3.587 7.999-7.997V7.997C54.5 3.587 50.912 0 46.501 0zM52.5 47.003A6.005 6.005 0 0146.501 53H8.499A6.005 6.005 0 012.5 47.003V7.997A6.005 6.005 0 018.499 2h38.002A6.005 6.005 0 0152.5 7.997v39.006z"/><path d="M28.207 8.293a.999.999 0 00-1.414 0l-16 16A1 1 0 0011.5 26h3v18a1 1 0 001 1h24a1 1 0 001-1V26h3a1 1 0 00.707-1.707l-16-16zM24.5 43V32h6v11h-6zm14 0h-6V31a1 1 0 00-1-1h-8a1 1 0 00-1 1v12h-6V26h22v17zm1-19H13.914L27.5 10.414 41.086 24H39.5z"/></svg>