<svg xmlns="http://www.w3.org/2000/svg" viewBox="0 0 415.386 415.386"><path d="M199.255 361.899c-3.469.417-6.975.722-10.489.915v-31.552c0-4.971-4.029-9-9-9s-9 4.029-9 9v30.827c-17.887-3.883-34.774-19.278-48.299-44.319-7.313-13.54-13.188-29.068-17.486-45.95a540.389 540.389 0 0047.902 4.418c4.952.23 9.182-3.594 9.42-8.56a9.001 9.001 0 00-8.56-9.42 520.623 520.623 0 01-52.791-5.206c-2.908-16.459-4.417-33.878-4.417-51.757 0-13.998.926-27.717 2.724-40.913 23.318 3.779 47.203 5.88 71.507 6.28v16.365c0 4.971 4.029 9 9 9s9-4.029 9-9v-16.382c19.383-.358 38.737-1.823 57.662-4.366a9 9 0 10-2.398-17.84c-18.134 2.438-36.682 3.847-55.264 4.203V40.514c25.664 5.624 49.148 35.002 62.731 79.477a9 9 0 0011.236 5.979 9 9 0 005.979-11.236c-8.247-27.003-20.308-49.82-34.89-66.014 28.889 10.188 54.527 28.559 73.949 53.654a9.001 9.001 0 0014.235-11.017c-34.299-44.32-86.055-69.762-142.025-69.828a10.273 10.273 0 00-.43 0C80.528 21.647 0 102.244 0 201.295c0 99.124 80.643 179.767 179.767 179.767 7.214 0 14.493-.435 21.633-1.291a9 9 0 007.864-10.008c-.593-4.936-5.073-8.458-10.009-7.864zM170.767 40.502V148.66c-23.291-.397-46.169-2.412-68.5-6.025 4.383-21.491 11.205-41.157 20.2-57.813 13.525-25.041 30.412-40.437 48.3-44.32zm-45.25 8.384c-6.831 7.636-13.17 16.797-18.887 27.382-9.867 18.268-17.319 39.757-22.06 63.146a440.77 440.77 0 01-48.351-12.657c18.76-35.987 50.663-64.077 89.298-77.871zM21.366 234.21A161.869 161.869 0 0118 201.295c0-20.443 3.814-40.019 10.764-58.042.091.033.183.064.275.095 17.095 5.609 34.62 10.218 52.505 13.818-1.985 14.257-3.008 29.054-3.008 44.129 0 16.641 1.247 32.952 3.659 48.563-20.479-3.891-40.481-9.028-59.873-15.391a9.333 9.333 0 00-.956-.257zm5.745 20.642c19.063 5.78 38.653 10.439 58.661 13.958 4.759 21.209 11.789 40.721 20.858 57.513 5.717 10.585 12.057 19.746 18.887 27.382-45.861-16.374-82.237-52.896-98.406-98.853zm387.239-25.568c-1.619-10.076-5.553-20.593-12.381-33.104-2.581-4.721-10.952-8.358-14.649-8.765a8.993 8.993 0 00-5.905 1.41c-1.222-5.169-3.698-11.464-8.064-21.5-5.591-12.849-12.988-20.915-21.987-23.975-4.14-1.408-8.435-1.723-12.843-.951-.272-2.883-.492-5.585-.624-8.019a9.01 9.01 0 00-5.897-8.252c-15.518-6.014-29.293-2.84-40.943 9.437-11.019 11.612-11.773 30.813-12.571 51.151-.621 15.871-7.013 41.11-12.789 59.439-2.042 6.481-6.224 9.821-8.407 10.039-.841.09-1.757-.73-2.691-2.426-.672-1.219-1.383-2.728-2.111-4.474-.743-1.79-1.458-4.178-2.214-6.707-1.294-4.325-2.76-9.227-5.119-13.772-5.755-11.082-11.975-18.818-19.009-23.648-5.029-3.456-12.432-5.454-19.349-5.215-6.055.212-11.431 2.688-15.546 7.16-5.663 6.154-8.735 16.241-8.219 26.974.288 6.084 3.651 17.558 5.751 22.478 4.218 9.88 7.162 17.831 10.01 25.521 6.753 18.224 12.585 33.963 25.302 52.588 2.022 2.961 4.216 5.407 6.576 8.037 5.393 6.003 11.5 12.801 12.237 29.158-.003.157-.005.315-.005.472 0 11.866 9.063 21.519 20.204 21.519h93.846a9.02 9.02 0 001.364-.104c7.812-.55 14.558-5.782 17.414-13.629a2095.648 2095.648 0 0011.372-31.922 3321.36 3321.36 0 0011.262-33.08c12.764-38.102 19.802-60.871 15.985-85.84zm-33.055 80.12a3317.942 3317.942 0 01-11.2 32.897 2075.29 2075.29 0 01-11.277 31.656c-.461 1.268-1.294 1.846-1.872 1.846-.338 0-.672.019-1 .056h-92.842c-.898 0-2.204-1.371-2.204-3.519l.005-.214a9.312 9.312 0 00-.001-.689c-.938-23.048-10.51-33.704-16.873-40.788-1.997-2.227-3.722-4.149-5.073-6.127-11.47-16.799-16.685-30.873-23.287-48.688-2.786-7.524-5.943-16.053-10.334-26.336-1.72-4.03-4.186-13.3-4.326-16.269-.278-5.765 1.123-11.362 3.484-13.928.848-.922 1.697-1.316 2.927-1.359.172-.006.343-.009.515-.009 3.252 0 6.509 1.037 8.015 2.072 4.542 3.118 8.868 8.714 13.226 17.105 1.575 3.036 2.731 6.9 3.849 10.637.893 2.986 1.737 5.806 2.84 8.462.996 2.39 1.966 4.434 2.965 6.246 4.533 8.232 11.902 12.477 20.237 11.652 10.306-1.024 19.869-10.083 23.795-22.54 2.973-9.434 12.739-41.938 13.608-64.154.632-16.105 1.286-32.758 7.642-39.457 5.186-5.465 10.15-7.528 16.248-6.506.362 4.207.852 8.766 1.359 13.496 1.759 16.378 3.947 36.762 1.167 49.26-4.788 21.537-9.041 40.32-12.598 52.075a9 9 0 006.008 11.221c4.758 1.441 9.781-1.25 11.221-6.008 3.738-12.353 8.072-31.484 12.94-53.38 2.976-13.376 1.653-31.067-.057-47.69 2.878-.809 4.506-.255 5.168-.03 3.886 1.321 7.891 6.334 11.275 14.114 8.358 19.21 8.239 20.054 6.781 30.394-.24 1.714-.571 3.626-1.01 5.841-1.214 6.113-2.299 12.052-3.349 17.795-2.43 13.299-4.726 25.86-7.946 36.588a9 9 0 0017.241 5.175c3.507-11.685 5.89-24.723 8.413-38.526 1.037-5.677 2.11-11.548 3.298-17.528.506-2.553.892-4.792 1.179-6.84.16-1.135.305-2.204.43-3.221a8.956 8.956 0 002.952 1.051c.519.187 1.438.65 2.144 1.064 5.318 9.978 8.378 18.22 9.592 25.772 3.176 20.793-3.393 41.869-15.275 77.331z"/></svg>