<svg xmlns="http://www.w3.org/2000/svg" width="487.381" height="487.381"><path d="M400.1 100.918h-9.871V11.646C390.229 5.215 385.014 0 378.582 0H108.804c-6.436 0-11.646 5.215-11.646 11.646v89.271h-9.877c-38.523 0-69.871 31.344-69.871 69.871v144.258c0 38.528 31.348 69.87 69.871 69.87h9.877v90.818c0 6.432 5.21 11.646 11.646 11.646h269.778c6.432 0 11.646-5.215 11.646-11.646v-90.818h9.871c38.523 0 69.871-31.342 69.871-69.87V170.789c.001-38.528-31.347-69.871-69.87-69.871zM120.449 23.291h246.489v77.627H120.449V23.291zm246.489 440.801H120.449V320.465h246.489v143.627zm79.744-149.046c0 25.687-20.896 46.581-46.582 46.581h-9.871v-41.162h25.186c6.436 0 11.645-5.214 11.645-11.646 0-6.43-5.209-11.645-11.645-11.645H75.421c-6.431 0-11.646 5.215-11.646 11.645 0 6.433 5.215 11.646 11.646 11.646h21.737v41.162h-9.877c-25.685 0-46.581-20.896-46.581-46.581V170.789c0-25.685 20.896-46.58 46.581-46.58H400.1c25.684 0 46.58 20.896 46.58 46.58v144.257h.002z"/><path d="M378.582 170.646c-8.771 0-15.893 7.119-15.893 15.893s7.119 15.893 15.893 15.893c8.775 0 15.895-7.118 15.895-15.893-.002-8.774-7.12-15.893-15.895-15.893zM147.618 360.734h192.146c6.432 0 11.646-5.213 11.646-11.646 0-6.43-5.215-11.645-11.646-11.645H147.618c-6.431 0-11.646 5.215-11.646 11.645 0 6.433 5.215 11.646 11.646 11.646zm0 43.192h192.146c6.432 0 11.646-5.217 11.646-11.646 0-6.432-5.215-11.645-11.646-11.645H147.618c-6.431 0-11.646 5.213-11.646 11.645s5.215 11.646 11.646 11.646z"/></svg>