<svg xmlns="http://www.w3.org/2000/svg" viewBox="0 0 512 512"><path d="M469.333 0H76.8C62.293 0 51.2 11.093 51.2 25.6v.825c-19.681 3.86-34.133 20.878-34.133 41.841s14.452 37.981 34.133 41.841v10.184c-19.681 3.86-34.133 20.878-34.133 41.841s14.452 37.981 34.133 41.841v10.184c-19.681 3.86-34.133 20.878-34.133 41.841s14.452 37.981 34.133 41.841v10.184c-19.681 3.86-34.133 20.878-34.133 41.841s14.452 37.981 34.133 41.841v10.184c-19.681 3.86-34.133 20.878-34.133 41.841s14.452 37.981 34.133 41.841v.825c0 14.507 11.093 25.6 25.6 25.6h392.534c14.507 0 25.6-11.093 25.6-25.6V25.6C494.933 11.093 483.84 0 469.333 0zm-435.2 68.267c0-11.491 6.963-20.833 17.067-24.224v48.448C41.097 89.1 34.133 79.757 34.133 68.267zm0 93.866c0-11.491 6.963-20.833 17.067-24.224v48.448c-10.103-3.39-17.067-12.733-17.067-24.224zm0 93.867c0-11.491 6.963-20.833 17.067-24.224v48.448C41.097 276.833 34.133 267.491 34.133 256zm0 93.867c0-11.491 6.963-20.833 17.067-24.224v48.448c-10.103-3.391-17.067-12.734-17.067-24.224zm0 93.866c0-11.491 6.963-20.833 17.067-24.224v48.448c-10.103-3.39-17.067-12.733-17.067-24.224zM68.267 486.4v-66.891c10.103 3.391 17.067 12.734 17.067 24.224 0 5.12 3.413 8.533 8.533 8.533s8.533-3.413 8.533-8.533c0-20.963-14.452-37.981-34.133-41.841v-76.25c10.103 3.391 17.067 12.734 17.067 24.224 0 5.12 3.413 8.533 8.533 8.533s8.533-3.413 8.533-8.533c0-20.963-14.452-37.981-34.133-41.841v-76.25C78.37 235.167 85.333 244.509 85.333 256c0 5.12 3.413 8.533 8.533 8.533S102.4 261.12 102.4 256c0-20.963-14.452-37.981-34.133-41.841v-76.25c10.103 3.391 17.067 12.734 17.067 24.224 0 5.12 3.413 8.533 8.533 8.533s8.533-3.413 8.533-8.533c0-20.963-14.452-37.981-34.133-41.841v-76.25c10.103 3.391 17.067 12.734 17.067 24.224 0 5.12 3.413 8.533 8.533 8.533s8.533-3.413 8.533-8.533c0-20.963-14.452-37.981-34.133-41.841V25.6c0-5.12 3.413-8.533 8.533-8.533h59.733v477.867H76.8c-5.12-.001-8.533-3.414-8.533-8.534zm409.6 0c0 5.12-3.413 8.533-8.533 8.533H153.6V17.067h315.733c5.12 0 8.533 3.413 8.533 8.533v460.8z"/><path d="M241.493 185.173c1.707 1.707 3.413 2.56 5.973 2.56s4.267-.853 5.973-2.56l2.56-2.56V230.4c0 5.12 3.413 8.533 8.533 8.533h102.4c5.12 0 8.533-3.413 8.533-8.533v-47.787l2.56 2.56c1.707 1.707 3.413 2.56 5.973 2.56s4.267-.853 5.973-2.56l25.6-25.6c1.707-1.707 2.56-3.413 2.56-5.973s-.853-4.267-2.56-5.973L321.707 53.76c-1.707-1.707-3.413-2.56-5.973-2.56s-4.267.853-5.973 2.56l-93.867 93.867c-3.413 3.413-3.413 8.533 0 11.947l25.599 25.599zM358.4 221.867h-85.333v-56.32l42.667-42.667 42.667 42.667v56.32zM315.733 71.68l81.92 81.92L384 167.253l-11.092-11.092-.001-.001-51.2-51.2c-.853-1.707-2.56-2.56-4.267-2.56h-1.707c-2.56 0-4.267.853-5.973 2.56l-51.2 51.2-.001.001-11.092 11.092-13.654-13.653 81.92-81.92zM196.267 324.267H281.6c5.12 0 8.533-3.413 8.533-8.533s-3.413-8.533-8.533-8.533h-85.333c-5.12 0-8.533 3.413-8.533 8.533s3.413 8.533 8.533 8.533zM315.733 307.2c-5.12 0-8.533 3.413-8.533 8.533s3.413 8.533 8.533 8.533h59.733c5.12 0 8.533-3.413 8.533-8.533s-3.413-8.533-8.533-8.533h-59.733zm119.467 0h-25.6c-5.12 0-8.533 3.413-8.533 8.533s3.413 8.533 8.533 8.533h25.6c5.12 0 8.533-3.413 8.533-8.533s-3.413-8.533-8.533-8.533zm0 51.2h-59.733c-5.12 0-8.533 3.413-8.533 8.533s3.413 8.533 8.533 8.533H435.2c5.12 0 8.533-3.413 8.533-8.533s-3.413-8.533-8.533-8.533zm-85.333 8.533c0-5.12-3.413-8.533-8.533-8.533h-68.267c-5.12 0-8.533 3.413-8.533 8.533s3.413 8.533 8.533 8.533h68.267c5.119.001 8.533-3.413 8.533-8.533zm-153.6 8.534h42.667c5.12 0 8.533-3.413 8.533-8.533s-3.413-8.533-8.533-8.533h-42.667c-5.12 0-8.533 3.413-8.533 8.533s3.413 8.533 8.533 8.533zM256 409.6h-59.733c-5.12 0-8.533 3.413-8.533 8.533s3.413 8.533 8.533 8.533H256c5.12 0 8.533-3.413 8.533-8.533S261.12 409.6 256 409.6zm110.933 0h-76.8c-5.12 0-8.533 3.413-8.533 8.533s3.413 8.533 8.533 8.533h76.8c5.12 0 8.533-3.413 8.533-8.533s-3.413-8.533-8.533-8.533zm68.267 0h-34.133c-5.12 0-8.533 3.413-8.533 8.533s3.413 8.533 8.533 8.533H435.2c5.12 0 8.533-3.413 8.533-8.533s-3.413-8.533-8.533-8.533z"/></svg>