<svg xmlns="http://www.w3.org/2000/svg" viewBox="0 0 512 512"><path d="M450.697 0H61.303C27.501 0 0 27.501 0 61.303v389.392C0 484.499 27.501 512 61.303 512h389.392C484.499 512 512 484.499 512 450.697V61.303C512 27.501 484.499 0 450.697 0zm40.905 450.697c0 22.555-18.349 40.905-40.905 40.905H61.303c-22.556 0-40.905-18.35-40.905-40.905V61.303c0-22.555 18.349-40.905 40.905-40.905h389.392c22.557 0 40.906 18.35 40.906 40.905v389.394z"/><path d="M445.389 378.602l-91.291-91.291a10.2 10.2 0 00-10.014-2.595l-13.596 3.885a10.21 10.21 0 00-2.86 1.323l-13.983 9.33-.006.004-19.337 12.903c-39.161-26.378-73.028-60.962-98.588-100.667l13.669-13.669.005-.005 11.658-11.657a10.22 10.22 0 002.595-4.41l3.885-13.597a10.201 10.201 0 00-2.595-10.014l-91.292-91.29a10.204 10.204 0 00-10.794-2.338l-15.539 5.827a10.21 10.21 0 00-3.631 2.338 134.368 134.368 0 00-9.925 11.108c-42.09 52.695-37.823 128.439 9.925 176.186l148.59 148.59c25.76 25.76 59.659 38.865 93.699 38.863 29.058-.002 58.221-9.555 82.487-28.937a134.55 134.55 0 0011.108-9.925 10.202 10.202 0 002.338-3.631l5.828-15.539a10.196 10.196 0 00-2.336-10.792zM116.587 88.648l7.273-2.727 82.403 82.403-1.51 5.285-2.576 2.576-86.539-86.539c.315-.335.632-.667.949-.998zm150.105 305.493L118.102 245.55c-37.655-37.654-43.353-95.881-15.115-139.707l84.767 84.767-12.208 12.208a10.2 10.2 0 00-1.491 12.53c28.75 47.046 68.431 87.718 114.751 117.621a10.206 10.206 0 0011.194-.085l18.012-12.02 88.389 88.389c-43.831 28.241-102.056 22.544-139.709-15.112zm156.901 1.513c-.33.318-.663.634-.998.949l-87.283-87.284 2.312-1.543 6.293-1.797 82.404 82.402-2.728 7.273zm47.61-141.694c-5.632 0-10.199 4.566-10.199 10.199v5.1c0 5.633 4.567 10.199 10.199 10.199s10.199-4.566 10.199-10.199v-5.1c0-5.633-4.567-10.199-10.199-10.199zm0-200.924c-5.632 0-10.199 4.566-10.199 10.199v162.167c0 5.633 4.567 10.199 10.199 10.199s10.199-4.566 10.199-10.199V63.235c0-5.633-4.567-10.199-10.199-10.199z"/></svg>