<svg xmlns="http://www.w3.org/2000/svg" viewBox="0 0 512 512"><path d="M480.6 11H31.4C20.1 11 11 20.1 11 31.4v449.2c0 11.3 9.1 20.4 20.4 20.4h449.2c11.3 0 20.4-9.1 20.4-20.4V31.4c0-11.3-9.1-20.4-20.4-20.4zm-20.4 449.2H51.8V51.8h408.3v408.4z"/><path d="M134.4 286.7c-3.2 2.7-8 4-14.3 4-6 0-10.7-1.5-14.2-4.5s-5.9-7.7-7-14.1L79.8 274c1.3 10.9 5.2 19.2 11.8 24.9 6.6 5.7 16 8.5 28.3 8.5 8.5 0 15.5-1.2 21.2-3.6 5.7-2.4 10-6 13.1-10.9 3.1-4.9 4.6-10.1 4.6-15.7 0-6.2-1.3-11.3-3.9-15.5-2.6-4.2-6.2-7.5-10.8-9.9-4.6-2.4-11.7-4.7-21.2-7-9.6-2.3-15.6-4.4-18.1-6.5-1.9-1.6-2.9-3.6-2.9-5.9 0-2.5 1-4.5 3.1-6 3.2-2.3 7.7-3.5 13.4-3.5 5.5 0 9.7 1.1 12.4 3.3 2.8 2.2 4.6 5.8 5.4 10.8l19.6-.9c-.3-8.9-3.6-16.1-9.7-21.4-6.2-5.4-15.4-8-27.6-8-7.5 0-13.9 1.1-19.2 3.4-5.3 2.3-9.3 5.5-12.1 9.9-2.8 4.3-4.2 9-4.2 13.9 0 7.7 3 14.2 9 19.6 4.2 3.8 11.6 7 22.2 9.6 8.2 2 13.4 3.5 15.7 4.2 3.4 1.2 5.7 2.6 7.1 4.2 1.4 1.6 2 3.6 2 5.9.2 3.5-1.4 6.6-4.6 9.3zm60-3.2h38.9l8.5 22.1h21.4l-39-97.3h-20.8l-37.9 97.3h20.8l8.1-22.1zm19.1-52.5l13.4 36.1h-26.6l13.2-36.1zm80.2-21.9h-19.6v96.5h68.5v-16.4h-48.9zm136.9 80.1h-54.4v-26.5h48.9v-16.4h-48.9v-21.5h52.6v-16.5h-72.2v97.3h74zm-195-163.4h40.8c11.3 0 20.4-9.1 20.4-20.4 0-11.3-9.1-20.4-20.4-20.4h-40.8c-11.3 0-20.4 9.1-20.4 20.4 0 11.3 9.1 20.4 20.4 20.4z"/></svg>