<svg xmlns="http://www.w3.org/2000/svg" viewBox="0 0 485 485"><path d="M242.5 0C130.001 0 90.084 73.396 90.084 136.247v212.507C90.084 411.605 130.001 485 242.5 485s152.416-73.395 152.416-136.246V136.247C394.916 73.396 354.999 0 242.5 0zm0 176.818c-11.028 0-20-8.972-20-20v-37.776c0-11.028 8.972-20 20-20s20 8.972 20 20v37.776c0 11.028-8.972 20-20 20zm122.416 171.936c0 12.266-2.348 43.55-24.096 69.06C319.784 442.489 286.704 455 242.5 455s-77.284-12.511-98.32-37.186c-21.748-25.51-24.096-56.794-24.096-69.06V136.247c0-12.266 2.348-43.55 24.096-69.061 18.583-21.798 46.573-34.096 83.32-36.67v40.827c-20.264 6.386-35 25.352-35 47.698v37.776c0 22.346 14.736 41.312 35 47.698v37.302h30v-37.302c20.264-6.386 35-25.352 35-47.698v-37.776c0-22.346-14.736-41.312-35-47.698V30.517c36.748 2.573 64.737 14.871 83.32 36.67 21.748 25.51 24.096 56.794 24.096 69.061v212.506z"/></svg>